<svg xmlns="http://www.w3.org/2000/svg" xmlns:xlink="http://www.w3.org/1999/xlink" width="174" height="409" viewBox="0 0 174 409">
  <defs>
    <clipPath id="clip-Web_1920_1">
      <rect width="174" height="409"/>
    </clipPath>
  </defs>
  <g id="Web_1920_1" data-name="Web 1920 – 1" clip-path="url(#clip-Web_1920_1)">
    <g id="Rectangle_12" data-name="Rectangle 12" transform="translate(170 327)" fill="#fcce06" stroke="#fcd005" stroke-width="1">
      <rect width="8" height="81" rx="4" stroke="none"/>
      <rect x="0.5" y="0.5" width="7" height="80" rx="3.5" fill="none"/>
    </g>
    <g id="Rectangle_10" data-name="Rectangle 10" transform="translate(170 327)" fill="#fcce06" stroke="#fcd005" stroke-width="1">
      <rect width="8" height="81" rx="4" stroke="none"/>
      <rect x="0.5" y="0.5" width="7" height="80" rx="3.5" fill="none"/>
    </g>
    <g id="Rectangle_11" data-name="Rectangle 11" transform="translate(156 321)" fill="#fcce06" stroke="#fcd005" stroke-width="1">
      <rect width="8" height="81" rx="4" stroke="none"/>
      <rect x="0.5" y="0.5" width="7" height="80" rx="3.5" fill="none"/>
    </g>
    <g id="Rectangle_14" data-name="Rectangle 14" transform="translate(142 310)" fill="#fcce06" stroke="#fcd005" stroke-width="1">
      <rect width="8" height="81" rx="4" stroke="none"/>
      <rect x="0.5" y="0.5" width="7" height="80" rx="3.5" fill="none"/>
    </g>
    <g id="Rectangle_16" data-name="Rectangle 16" transform="translate(128 299)" fill="#fcce06" stroke="#fcd005" stroke-width="1">
      <rect width="8" height="81" rx="4" stroke="none"/>
      <rect x="0.5" y="0.5" width="7" height="80" rx="3.5" fill="none"/>
    </g>
    <g id="Rectangle_17" data-name="Rectangle 17" transform="translate(114 288)" fill="#fcce06" stroke="#fcd005" stroke-width="1">
      <rect width="8" height="81" rx="4" stroke="none"/>
      <rect x="0.5" y="0.5" width="7" height="80" rx="3.5" fill="none"/>
    </g>
    <g id="Ellipse_5" data-name="Ellipse 5" transform="translate(78 171)" fill="#abdbd4" stroke="#acdbd4" stroke-width="1">
      <ellipse cx="97.5" cy="83.5" rx="97.5" ry="83.5" stroke="none"/>
      <ellipse cx="97.5" cy="83.5" rx="97" ry="83" fill="none"/>
    </g>
    <g id="Ellipse_4" data-name="Ellipse 4" transform="translate(94 210)" fill="#fafff1" stroke="#fafff1" stroke-width="1">
      <ellipse cx="80" cy="55.5" rx="80" ry="55.5" stroke="none"/>
      <ellipse cx="80" cy="55.5" rx="79.5" ry="55" fill="none"/>
    </g>
    <g id="Ellipse_3" data-name="Ellipse 3" transform="translate(105 202)" fill="#5e3811" stroke="#5e3811" stroke-width="1">
      <ellipse cx="70.5" cy="55.5" rx="70.5" ry="55.5" stroke="none"/>
      <ellipse cx="70.5" cy="55.5" rx="70" ry="55" fill="none"/>
    </g>
    <g id="Ellipse_11" data-name="Ellipse 11" transform="translate(56 112)" fill="#4ab7bf" stroke="#4bb7bf" stroke-width="1">
      <ellipse cx="45" cy="47" rx="45" ry="47" stroke="none"/>
      <ellipse cx="45" cy="47" rx="44.5" ry="46.5" fill="none"/>
    </g>
    <g id="Ellipse_6" data-name="Ellipse 6" transform="translate(34 108)" fill="#afd5d9" stroke="#b0d5d9" stroke-width="1">
      <circle cx="63" cy="63" r="63" stroke="none"/>
      <circle cx="63" cy="63" r="62.5" fill="none"/>
    </g>
    <g id="Ellipse_10" data-name="Ellipse 10" transform="translate(64 118)" fill="#fff" stroke="#fff" stroke-width="1">
      <circle cx="38" cy="38" r="38" stroke="none"/>
      <circle cx="38" cy="38" r="37.5" fill="none"/>
    </g>
    <path id="Path_5" data-name="Path 5" d="M838.3,317.486,920.554,388.7l78.905-71.216s-20.325-50.266-78.905-47.655S838.3,317.486,838.3,317.486Z" transform="translate(-747 -233)" fill="#fccd00" stroke="#fccf00" stroke-width="1"/>
    <g id="Ellipse_9" data-name="Ellipse 9" transform="translate(81 134)" fill="#f21b24" stroke="#f21b24" stroke-width="1">
      <circle cx="22.5" cy="22.5" r="22.5" stroke="none"/>
      <circle cx="22.5" cy="22.5" r="22" fill="none"/>
    </g>
    <g id="Ellipse_8" data-name="Ellipse 8" transform="translate(90 143)" fill="#3c1f03" stroke="#3c1f03" stroke-width="1">
      <circle cx="13" cy="13" r="13" stroke="none"/>
      <circle cx="13" cy="13" r="12.5" fill="none"/>
    </g>
    <path id="Path_3" data-name="Path 3" d="M860.392,264.106l-7.546,8.743S880.9,299.1,887.068,307.756s14.408,27.232,16.378,32.8,3.408,20.872,3.408,20.872h7.8s-.688-19.5-7.8-34.434-27.766-41.917-33.811-48.007A171.757,171.757,0,0,1,860.392,264.106Z" transform="translate(-763.154 -234.774)" fill="#faf6e7" stroke="#faf7e7" stroke-width="1"/>
    <g id="Ellipse_17" data-name="Ellipse 17" transform="translate(58 1)" fill="#55b4c2" stroke="#46b5c2" stroke-width="1">
      <ellipse cx="26" cy="24.5" rx="26" ry="24.5" stroke="none"/>
      <ellipse cx="26" cy="24.5" rx="25.5" ry="24" fill="none"/>
    </g>
    <path id="Path_1" data-name="Path 1" d="M921.6,382.2c-49.847-52.041-56.848-57.109-85.551-70.479s-75.288-4-75.288-4-15.386,15.263-8,25.783,8.614,12.442,21.108,13.787,28.722.25,50.078,8.039,39.153,22.7,43.337,26.866,26.236,34.735,26.236,36.7S921.6,442.787,921.6,442.787l29.47-23.887s14.5-30.279,19.386-36.7,33.614-22.467,46.924-26.866,39.292-9.289,50.939-8.039,21.276-8.8,22.8-13.787-3.328-21.7-8.647-25.783-55.954-.531-70.953,4S965.6,333.51,965.6,333.51s-33.041,31.76-37.725,38.263A56.519,56.519,0,0,0,921.6,382.2Z" transform="translate(-747 -233)" fill="#bd1d2e" stroke="#bd1d2e" stroke-width="1"/>
    <ellipse id="Ellipse_1" data-name="Ellipse 1" cx="27" cy="22" rx="27" ry="22" transform="translate(121 188)" fill="#f11822"/>
    <path id="Path_2" data-name="Path 2" d="M784.3,415.9s-7.369,29.8-4.581,44.887,10.831,45.455,44.269,42.238,86.306-25.253,97.8-24.531,73.123,23.884,83.857,24.531,52.649,1.432,55.6-42.238-3.1-44.887-3.1-44.887-9.7,29.331-24.729,36.289-38.143,10.239-63.572,0a189.964,189.964,0,0,0-48.054-12.313s-49.087,10.286-56.553,12.313-37.827,14.928-59.98-3.944S784.3,415.9,784.3,415.9Z" transform="translate(-747 -233)" fill="#fccc07" stroke="#fcce06" stroke-width="1"/>
  </g>
</svg>
